<svg width="40" height="40" viewBox="0 0 40 40" fill="none" xmlns="http://www.w3.org/2000/svg">
<mask id="mask0_1_2857" style="mask-type:alpha" maskUnits="userSpaceOnUse" x="0" y="0" width="40" height="40">
<rect width="40" height="40" fill="#D9D9D9"/>
</mask>
<g mask="url(#mask0_1_2857)">
<path d="M20 31.9167C19.4723 31.9167 19.0212 31.7289 18.6467 31.3533C18.2712 30.9789 18.0834 30.5278 18.0834 30V21.9167H10C9.47226 21.9167 9.02115 21.7289 8.64671 21.3533C8.27115 20.9789 8.08337 20.5278 8.08337 20C8.08337 19.4722 8.27115 19.0211 8.64671 18.6467C9.02115 18.2711 9.47226 18.0833 10 18.0833H18.0834V10C18.0834 9.47223 18.2712 9.02057 18.6467 8.64501C19.0212 8.27057 19.4723 8.08334 20 8.08334C20.5278 8.08334 20.9789 8.27057 21.3534 8.64501C21.7289 9.02057 21.9167 9.47223 21.9167 10V18.0833H30C30.5278 18.0833 30.9789 18.2711 31.3534 18.6467C31.7289 19.0211 31.9167 19.4722 31.9167 20C31.9167 20.5278 31.7289 20.9789 31.3534 21.3533C30.9789 21.7289 30.5278 21.9167 30 21.9167H21.9167V30C21.9167 30.5278 21.7289 30.9789 21.3534 31.3533C20.9789 31.7289 20.5278 31.9167 20 31.9167Z" fill="#AAAAAA"/>
</g>
</svg>
