<svg width="40" height="40" viewBox="0 0 40 40" fill="none" xmlns="http://www.w3.org/2000/svg">
<path d="M31.7417 12.335C32.3717 11.705 32.7184 10.8683 32.7184 9.97834C32.7184 9.08835 32.3717 8.25168 31.7417 7.62168L29.0984 4.97835C28.4684 4.34835 27.6317 4.00168 26.7417 4.00168C25.8517 4.00168 25.015 4.34835 24.3867 4.97668L6.66669 22.6417V30H14.0217L31.7417 12.335ZM26.7417 7.33501L29.3867 9.97668L26.7367 12.6167L24.0934 9.97501L26.7417 7.33501ZM10 26.6667V24.025L21.7334 12.3283L24.3767 14.9717L12.645 26.6667H10ZM6.66669 33.3333H33.3334V36.6667H6.66669V33.3333Z" fill="#8E90A6"/>
</svg>
