<svg width="40" height="40" viewBox="0 0 40 40" fill="none" xmlns="http://www.w3.org/2000/svg">
<mask id="mask0_1_2869" style="mask-type:alpha" maskUnits="userSpaceOnUse" x="0" y="0" width="40" height="40">
<rect width="40" height="40" fill="#D9D9D9"/>
</mask>
<g mask="url(#mask0_1_2869)">
<path d="M18.3335 33.6667C17.778 33.6667 17.3058 33.4723 16.9169 33.0834C16.528 32.6945 16.3335 32.2223 16.3335 31.6667V21.7917L6.7502 9.54174C6.22243 8.87507 6.13909 8.1734 6.5002 7.43674C6.86131 6.70118 7.47243 6.3334 8.33354 6.3334H31.6669C32.528 6.3334 33.1391 6.70118 33.5002 7.43674C33.8613 8.1734 33.778 8.87507 33.2502 9.54174L23.6669 21.7917V31.7917C23.6669 32.3195 23.4863 32.764 23.1252 33.1251C22.7641 33.4862 22.3196 33.6667 21.7919 33.6667H18.3335ZM20.0002 20.2917L28.0002 10.1251H12.0002L20.0002 20.2917Z" fill="#AAAAAA"/>
</g>
</svg>
