<svg width="40" height="40" viewBox="0 0 40 40" fill="none" xmlns="http://www.w3.org/2000/svg">
<mask id="mask0_1_2858" style="mask-type:alpha" maskUnits="userSpaceOnUse" x="0" y="0" width="40" height="40">
<rect width="40" height="40" fill="#D9D9D9"/>
</mask>
<g mask="url(#mask0_1_2858)">
<path d="M8.00004 31.9583C7.47226 31.9583 7.02115 31.7778 6.64671 31.4167C6.27115 31.0556 6.08337 30.5972 6.08337 30.0417C6.08337 29.5139 6.27115 29.0695 6.64671 28.7083C7.02115 28.3472 7.47226 28.1667 8.00004 28.1667H9.54171V16.875C9.54171 14.4583 10.2573 12.3195 11.6884 10.4583C13.1184 8.59723 14.9723 7.37501 17.25 6.79168V5.66668C17.25 4.91668 17.5212 4.27779 18.0634 3.75001C18.6045 3.22223 19.25 2.95834 20 2.95834C20.75 2.95834 21.3962 3.22223 21.9384 3.75001C22.4795 4.27779 22.75 4.91668 22.75 5.66668V6.79168C25.0556 7.37501 26.9167 8.59723 28.3334 10.4583C29.75 12.3195 30.4584 14.4583 30.4584 16.875V28.1667H32C32.5556 28.1667 33.0139 28.3472 33.375 28.7083C33.7362 29.0695 33.9167 29.5139 33.9167 30.0417C33.9167 30.5972 33.7362 31.0556 33.375 31.4167C33.0139 31.7778 32.5556 31.9583 32 31.9583H8.00004ZM20 37C19.0556 37 18.2434 36.6667 17.5634 36C16.8823 35.3333 16.5417 34.5278 16.5417 33.5833H23.4584C23.4584 34.5278 23.1184 35.3333 22.4384 36C21.7573 36.6667 20.9445 37 20 37ZM13.3334 28.1667H26.6667V16.875C26.6667 15.0417 26.0139 13.4722 24.7084 12.1667C23.4028 10.8611 21.8334 10.2083 20 10.2083C18.1667 10.2083 16.5973 10.8611 15.2917 12.1667C13.9862 13.4722 13.3334 15.0417 13.3334 16.875V28.1667Z" fill="#AAAAAA"/>
</g>
</svg>
