<svg width="40" height="40" viewBox="0 0 40 40" fill="none" xmlns="http://www.w3.org/2000/svg">
<mask id="mask0_1_2859" style="mask-type:alpha" maskUnits="userSpaceOnUse" x="0" y="0" width="40" height="40">
<rect width="40" height="40" fill="#D9D9D9"/>
</mask>
<g mask="url(#mask0_1_2859)">
<path d="M31.3334 34.0417L22.0834 24.7917C21.25 25.4306 20.2917 25.9444 19.2084 26.3333C18.125 26.7222 16.9723 26.9167 15.75 26.9167C12.6667 26.9167 10.0556 25.84 7.91671 23.6867C5.77782 21.5344 4.70837 18.9167 4.70837 15.8333C4.70837 12.75 5.77782 10.1317 7.91671 7.97833C10.0556 5.82611 12.6667 4.75 15.75 4.75C18.8334 4.75 21.4517 5.82611 23.605 7.97833C25.7573 10.1317 26.8334 12.75 26.8334 15.8333C26.8334 17.0556 26.6462 18.2083 26.2717 19.2917C25.8962 20.375 25.3889 21.3194 24.75 22.125L34.0417 31.4583C34.375 31.7917 34.5417 32.2156 34.5417 32.73C34.5417 33.2433 34.3611 33.6806 34 34.0417C33.6389 34.4028 33.1878 34.5833 32.6467 34.5833C32.1045 34.5833 31.6667 34.4028 31.3334 34.0417ZM15.75 23.0833C17.7778 23.0833 19.5 22.3817 20.9167 20.9783C22.3334 19.5761 23.0417 17.8611 23.0417 15.8333C23.0417 13.8056 22.3334 12.09 20.9167 10.6867C19.5 9.28444 17.7778 8.58333 15.75 8.58333C13.7223 8.58333 12.0073 9.28444 10.605 10.6867C9.20171 12.09 8.50004 13.8056 8.50004 15.8333C8.50004 17.8611 9.20171 19.5761 10.605 20.9783C12.0073 22.3817 13.7223 23.0833 15.75 23.0833Z" fill="#AAAAAA"/>
</g>
</svg>
