<svg width="40" height="40" viewBox="0 0 40 40" fill="none" xmlns="http://www.w3.org/2000/svg">
<mask id="mask0_1_2867" style="mask-type:alpha" maskUnits="userSpaceOnUse" x="0" y="0" width="40" height="40">
<rect width="40" height="40" fill="#D9D9D9"/>
</mask>
<g mask="url(#mask0_1_2867)">
<path d="M11.3744 35.5835V13.5418L20.9161 4.08351C21.3883 3.58351 21.9505 3.28463 22.6027 3.18685C23.2561 3.09018 23.8883 3.18074 24.4994 3.45851C25.0827 3.76407 25.5133 4.20851 25.7911 4.79185C26.0688 5.37518 26.1244 5.98629 25.9577 6.62518L24.2077 13.5418H34.7911C35.7911 13.5418 36.6733 13.9235 37.4377 14.6868C38.2011 15.4513 38.5827 16.3335 38.5827 17.3335V20.0418C38.5827 20.2641 38.5549 20.4935 38.4994 20.7302C38.4438 20.9657 38.3883 21.1807 38.3327 21.3752L33.2494 33.2918C32.9716 33.9307 32.4994 34.4724 31.8327 34.9168C31.1661 35.3613 30.4716 35.5835 29.7494 35.5835H11.3744ZM14.9994 15.2918V31.7918H29.7494L34.7494 20.0418V17.3335H19.4994L21.6244 8.66685L14.9994 15.2918ZM6.66606 35.5835C5.6105 35.5835 4.71495 35.2157 3.97939 34.4802C3.24272 33.7435 2.87439 32.8474 2.87439 31.7918V17.3335C2.87439 16.278 3.24272 15.3818 3.97939 14.6452C4.71495 13.9096 5.6105 13.5418 6.66606 13.5418H11.3744V17.3335H6.66606V31.7918H11.3744V35.5835H6.66606Z" fill="#AAAAAA"/>
</g>
</svg>
