<svg width="40" height="40" viewBox="0 0 40 40" fill="none" xmlns="http://www.w3.org/2000/svg">
<mask id="mask0_1_2851" style="mask-type:alpha" maskUnits="userSpaceOnUse" x="0" y="0" width="40" height="40">
<rect width="40" height="40" fill="#D9D9D9"/>
</mask>
<g mask="url(#mask0_1_2851)">
<path d="M21.5833 12.9584V6.29169C21.5833 5.76391 21.7638 5.31946 22.125 4.95835C22.4861 4.59724 22.9444 4.41669 23.5 4.41669H33.7083C34.2361 4.41669 34.6805 4.59724 35.0416 4.95835C35.4027 5.31946 35.5833 5.76391 35.5833 6.29169V12.9584C35.5833 13.4861 35.4027 13.9372 35.0416 14.3117C34.6805 14.6872 34.2361 14.875 33.7083 14.875H23.5C22.9444 14.875 22.4861 14.6872 22.125 14.3117C21.7638 13.9372 21.5833 13.4861 21.5833 12.9584ZM4.41663 20.0417V6.29169C4.41663 5.76391 4.59718 5.31946 4.95829 4.95835C5.3194 4.59724 5.76385 4.41669 6.29163 4.41669H16.5C17.0555 4.41669 17.5138 4.59724 17.875 4.95835C18.2361 5.31946 18.4166 5.76391 18.4166 6.29169V20.0417C18.4166 20.5695 18.2361 21.0139 17.875 21.375C17.5138 21.7361 17.0555 21.9167 16.5 21.9167H6.29163C5.76385 21.9167 5.3194 21.7361 4.95829 21.375C4.59718 21.0139 4.41663 20.5695 4.41663 20.0417ZM21.5833 33.6667V19.9584C21.5833 19.4028 21.7638 18.9445 22.125 18.5834C22.4861 18.2222 22.9444 18.0417 23.5 18.0417H33.7083C34.2361 18.0417 34.6805 18.2222 35.0416 18.5834C35.4027 18.9445 35.5833 19.4028 35.5833 19.9584V33.6667C35.5833 34.1945 35.4027 34.6461 35.0416 35.0217C34.6805 35.3961 34.2361 35.5834 33.7083 35.5834H23.5C22.9444 35.5834 22.4861 35.3961 22.125 35.0217C21.7638 34.6461 21.5833 34.1945 21.5833 33.6667ZM4.41663 33.6667V27C4.41663 26.4722 4.59718 26.0278 4.95829 25.6667C5.3194 25.3056 5.76385 25.125 6.29163 25.125H16.5C17.0555 25.125 17.5138 25.3056 17.875 25.6667C18.2361 26.0278 18.4166 26.4722 18.4166 27V33.6667C18.4166 34.1945 18.2361 34.6461 17.875 35.0217C17.5138 35.3961 17.0555 35.5834 16.5 35.5834H6.29163C5.76385 35.5834 5.3194 35.3961 4.95829 35.0217C4.59718 34.6461 4.41663 34.1945 4.41663 33.6667Z" fill="#1CD2AD"/>
</g>
</svg>
